<svg width="248" height="205" viewBox="0 0 248 205" fill="none" xmlns="http://www.w3.org/2000/svg">
<g clip-path="url(#clip0_9_11)">
<path d="M189.068 81.525C188.545 81.8528 188.031 82.1859 187.519 82.5291C182.578 95.5555 180.069 109.245 180.096 123.028C180.094 124.622 180.132 126.212 180.21 127.798C180.755 139.692 183.244 151.446 187.595 162.671C187.824 163.262 188.058 163.85 188.296 164.436C188.467 164.856 188.64 165.28 188.826 165.697C189.012 165.906 189.195 166.112 189.379 166.318C189.391 166.327 189.403 166.342 189.415 166.351C189.489 166.434 189.563 166.517 189.63 166.599C189.946 166.952 190.267 167.302 190.584 167.655L190.333 167.681L189.705 167.743L189.708 167.747C189.919 167.734 190.135 167.719 190.348 167.7C190.425 167.697 190.51 167.695 190.588 167.685C190.659 167.681 190.734 167.674 190.804 167.67C199.876 167.069 209.15 166.271 217.247 162.543C225.721 158.638 232.677 150.665 231.873 142.044C231.764 140.915 231.52 139.801 231.144 138.72C230.988 138.269 230.807 137.827 230.615 137.386C229.447 134.687 227.511 132.32 225.006 130.529C222.501 128.737 219.519 127.587 216.364 127.194C213.21 126.802 209.998 127.183 207.058 128.297C204.119 129.411 201.558 131.219 199.639 133.535C201.675 124.551 212.092 119.578 221.541 116.425C230.998 113.274 241.647 109.946 246.149 101.741C248.664 97.1743 248.471 91.9833 246.446 87.2664C246.385 87.1256 246.32 86.9808 246.252 86.8385C243.721 81.2948 238.99 76.8254 233.001 74.3234C221.791 69.8304 208.557 72.1282 197.544 77.0097C194.598 78.3173 191.764 79.8268 189.068 81.525Z" fill="#F2F2F2"/>
<path d="M223.36 137.724C214.779 138.803 206.806 142.37 200.621 147.898C195.356 152.656 191.593 158.618 189.727 165.159C189.618 165.533 189.521 165.906 189.43 166.28C189.194 165.912 188.963 165.534 188.735 165.16C188.588 164.921 188.439 164.678 188.296 164.436C188.467 164.856 188.64 165.28 188.826 165.697C189.012 165.906 189.195 166.112 189.378 166.318C189.391 166.327 189.403 166.342 189.415 166.351C189.489 166.434 189.563 166.517 189.63 166.599C189.946 166.952 190.267 167.302 190.584 167.655L190.333 167.681L189.705 167.743L189.708 167.747C189.919 167.734 190.135 167.719 190.348 167.7C190.425 167.697 190.51 167.695 190.588 167.685C190.609 167.572 190.636 167.461 190.664 167.348C192.481 158.925 197.581 151.386 205.022 146.124C212.463 140.862 221.742 138.232 231.144 138.72C230.988 138.269 230.807 137.827 230.615 137.386C228.191 137.306 225.763 137.419 223.36 137.724Z" fill="white"/>
<path d="M193.09 106.061C189.75 108.565 186.83 111.501 184.421 114.775C183.168 116.519 182.096 118.366 181.219 120.291C180.802 121.184 180.427 122.102 180.096 123.028C180.094 124.622 180.132 126.212 180.21 127.798C180.47 126.586 180.802 125.387 181.203 124.207C181.41 123.56 181.644 122.924 181.895 122.295C184.709 115.246 190.161 109.547 196.705 105.114C203.718 100.371 211.708 96.6975 219.85 93.8745C228.193 90.9696 236.896 89.0079 245.763 88.0333C245.964 88.0102 246.146 87.9175 246.273 87.7747C246.4 87.6318 246.462 87.4498 246.446 87.2664C246.445 87.1061 246.375 86.9526 246.251 86.8385C246.186 86.7853 246.108 86.7468 246.023 86.7261C245.939 86.7054 245.85 86.703 245.764 86.7192C244.67 86.8396 243.579 86.9641 242.489 87.1153C233.42 88.3485 224.554 90.6049 216.097 93.8327C207.931 96.9384 199.892 100.86 193.09 106.061Z" fill="white"/>
<path d="M236.19 65.9335C237.873 65.9335 239.238 64.6893 239.238 63.1547C239.238 61.62 237.873 60.3759 236.19 60.3759C234.506 60.3759 233.141 61.62 233.141 63.1547C233.141 64.6893 234.506 65.9335 236.19 65.9335Z" fill="#F2F2F2"/>
<path d="M176.534 204.399H101.37C96.8636 204.394 92.5434 202.76 89.357 199.856C86.1706 196.952 84.3783 193.014 84.3732 188.907V15.4921C84.3783 11.3848 86.1706 7.447 89.357 4.54267C92.5434 1.63835 96.8636 0.00465335 101.37 0H176.534C181.04 0.00465256 185.36 1.63835 188.547 4.54267C191.733 7.447 193.525 11.3848 193.53 15.4921V188.907C193.525 193.014 191.733 196.952 188.547 199.856C185.36 202.76 181.04 204.394 176.534 204.399Z" fill="#3F3D56"/>
<path d="M175.693 4.80937H167.326C166.579 4.81004 165.864 5.08071 165.336 5.56197C164.808 6.04323 164.511 6.69577 164.51 7.37638C164.508 8.76789 163.901 10.102 162.822 11.086C161.742 12.0699 160.279 12.6233 158.752 12.6246H117.833C116.306 12.6233 114.842 12.0699 113.763 11.086C112.683 10.102 112.076 8.76789 112.075 7.37638C112.074 6.69577 111.777 6.04323 111.249 5.56197C110.721 5.08071 110.005 4.81004 109.258 4.80937H101.881C98.4636 4.81334 95.1872 6.05256 92.7706 8.25524C90.354 10.4579 88.9945 13.4442 88.9901 16.5593V188.741C88.9945 191.856 90.354 194.843 92.7706 197.045C95.1872 199.248 98.4636 200.487 101.881 200.491H175.693C179.11 200.487 182.387 199.248 184.803 197.045C187.22 194.843 188.579 191.856 188.584 188.741V16.5593C188.579 13.4442 187.22 10.4579 184.803 8.25524C182.387 6.05256 179.11 4.81334 175.693 4.80937Z" fill="white"/>
<path d="M148.598 8.26613H125.513C125.295 8.26613 125.085 8.18696 124.93 8.04603C124.776 7.9051 124.689 7.71397 124.689 7.51466C124.689 7.31536 124.776 7.12423 124.93 6.9833C125.085 6.84237 125.295 6.7632 125.513 6.7632H148.598C148.816 6.7632 149.026 6.84237 149.181 6.9833C149.335 7.12423 149.422 7.31536 149.422 7.51466C149.422 7.71397 149.335 7.9051 149.181 8.04603C149.026 8.18696 148.816 8.26613 148.598 8.26613Z" fill="white"/>
<path d="M152.225 8.11583C152.59 8.11583 152.885 7.84667 152.885 7.51466C152.885 7.18264 152.59 6.91348 152.225 6.91348C151.861 6.91348 151.566 7.18264 151.566 7.51466C151.566 7.84667 151.861 8.11583 152.225 8.11583Z" fill="white"/>
<path d="M194.19 68.3834C193.796 68.383 193.419 68.2404 193.141 67.9868C192.863 67.7332 192.706 67.3894 192.706 67.0308V40.5792C192.706 40.2204 192.862 39.8764 193.141 39.6227C193.419 39.3691 193.796 39.2265 194.19 39.2265C194.584 39.2265 194.961 39.3691 195.239 39.6227C195.518 39.8764 195.674 40.2204 195.674 40.5792V67.0308C195.674 67.3894 195.517 67.7332 195.239 67.9868C194.961 68.2404 194.583 68.383 194.19 68.3834Z" fill="#3F3D56"/>
<path d="M84.3732 48.8453C83.9797 48.8449 83.6025 48.7023 83.3243 48.4487C83.0461 48.1951 82.8896 47.8513 82.8892 47.4927V41.4809C82.8892 41.1222 83.0455 40.7781 83.3238 40.5245C83.6021 40.2708 83.9796 40.1283 84.3732 40.1283C84.7668 40.1283 85.1442 40.2708 85.4225 40.5245C85.7008 40.7781 85.8572 41.1222 85.8572 41.4809V47.4927C85.8567 47.8513 85.7003 48.1951 85.4221 48.4487C85.1438 48.7023 84.7666 48.8449 84.3732 48.8453Z" fill="#3F3D56"/>
<path d="M84.3732 59.967C83.9797 59.9666 83.6025 59.824 83.3243 59.5704C83.0461 59.3168 82.8896 58.973 82.8892 58.6144V52.6026C82.8892 52.2439 83.0455 51.8998 83.3238 51.6462C83.6021 51.3925 83.9796 51.25 84.3732 51.25C84.7668 51.25 85.1442 51.3925 85.4225 51.6462C85.7008 51.8998 85.8572 52.2439 85.8572 52.6026V58.6144C85.8567 58.973 85.7003 59.3168 85.4221 59.5704C85.1438 59.824 84.7666 59.9666 84.3732 59.967Z" fill="#3F3D56"/>
<path d="M220.293 205H0.32978C0.242317 205 0.158436 204.968 0.0965902 204.912C0.0347444 204.856 0 204.779 0 204.699C0 204.62 0.0347444 204.543 0.0965902 204.487C0.158436 204.43 0.242317 204.399 0.32978 204.399H220.293C220.381 204.399 220.465 204.43 220.526 204.487C220.588 204.543 220.623 204.62 220.623 204.699C220.623 204.779 220.588 204.856 220.526 204.912C220.465 204.968 220.381 205 220.293 205Z" fill="#3F3D56"/>
<path d="M20.6603 201.363H24.7034L26.6267 187.148H20.6597L20.6603 201.363Z" fill="#FFB6B6"/>
<path d="M19.629 200.159L27.5912 200.159H27.5916C28.9373 200.159 30.2279 200.647 31.1794 201.514C32.131 202.381 32.6656 203.557 32.6657 204.784V204.934L19.6293 204.935L19.629 200.159Z" fill="#2F2E41"/>
<path d="M57.9256 201.363H61.9687L63.892 187.148H57.9249L57.9256 201.363Z" fill="#FFB6B6"/>
<path d="M56.8942 200.159L64.8564 200.159H64.8567C66.2024 200.159 67.493 200.647 68.4446 201.514C69.3961 202.381 69.9308 203.557 69.9309 204.784V204.934L56.8944 204.935L56.8942 200.159Z" fill="#2F2E41"/>
<path d="M53.0438 87.1701L55.6821 102.5L30.6188 102.801L33.9166 88.0718L53.0438 87.1701Z" fill="#FFB6B6"/>
<path d="M56.6716 98.5924L62.9374 118.13L63.9267 198.418H57.1662L41.007 133.911L26.1669 196.734H19.5713L24.1882 126.096C24.1882 126.096 21.8798 108.662 29.7945 103.552V99.0681L56.6716 98.5924Z" fill="#2F2E41"/>
<path d="M20.7143 113.86C21.4121 113.686 22.0598 113.376 22.6116 112.949C23.1635 112.523 23.6061 111.992 23.9083 111.393C24.2106 110.794 24.365 110.142 24.3609 109.483C24.3567 108.823 24.194 108.173 23.8842 107.577L34.5465 75.8929L26.704 74.4759L16.9522 105.533C15.8887 106.074 15.0798 106.951 14.6786 107.999C14.2775 109.047 14.3121 110.193 14.7758 111.219C15.2395 112.246 16.1002 113.081 17.1947 113.568C18.2892 114.055 19.5415 114.158 20.7143 113.86Z" fill="#FFB6B6"/>
<path d="M50.4624 55.5539C54.8798 51.5275 54.8798 44.9995 50.4624 40.9731C46.045 36.9467 38.8829 36.9467 34.4655 40.9731C30.0481 44.9995 30.0481 51.5275 34.4655 55.5539C38.8829 59.5803 46.045 59.5803 50.4624 55.5539Z" fill="#FFB6B6"/>
<path d="M34.3758 95.436C33.9317 95.3556 33.5288 95.1447 33.2289 94.8355C32.929 94.5263 32.7486 94.1359 32.7155 93.7243C32.4668 90.6198 31.2365 85.2245 29.059 77.6877C28.5683 75.9842 28.4783 74.2055 28.7948 72.4681C29.1114 70.7307 29.8273 69.074 30.8958 67.6065C31.9642 66.1391 33.361 64.8942 34.9944 63.9534C36.6279 63.0126 38.4611 62.3972 40.3738 62.1476C42.187 61.9084 44.0344 62.0031 45.8067 62.4261C47.579 62.8491 49.2403 63.5918 50.6922 64.6102C52.1441 65.6287 53.3571 66.9022 54.2595 68.3555C55.1619 69.8088 55.7354 71.4122 55.946 73.0711C57.0234 81.7193 54.9911 90.4075 54.0673 93.7411C53.9554 94.1425 53.7021 94.4993 53.3464 94.757C52.9907 95.0146 52.5521 95.1589 52.0979 95.1677L34.8212 95.4718C34.6717 95.4746 34.5224 95.4626 34.3758 95.436Z" fill="#E4E4E4"/>
<path d="M83.0447 67.805C82.9409 68.0172 82.8557 68.2365 82.7897 68.4609L61.1641 75.1589L56.9854 71.8315L50.6519 76.9233L57.4214 83.469C57.9683 83.9978 58.6886 84.3507 59.4742 84.4746C60.2598 84.5985 61.0684 84.4867 61.7784 84.1562L84.9191 73.3823C85.756 73.8502 86.7292 74.0748 87.7095 74.0262C88.6898 73.9776 89.6306 73.6581 90.4068 73.1102C91.183 72.5624 91.7578 71.8121 92.0548 70.9592C92.3518 70.1063 92.3568 69.1912 92.0693 68.3356C91.7818 67.48 91.2153 66.7245 90.4451 66.1696C89.675 65.6146 88.7378 65.2865 87.7581 65.2289C86.7784 65.1713 85.8027 65.387 84.9607 65.8471C84.1188 66.3073 83.4505 66.9902 83.0447 67.805H83.0447Z" fill="#FFB6B6"/>
<path d="M60.4102 75.525L52.5267 81.8011C52.3024 81.9796 52.0385 82.112 51.753 82.1893C51.4675 82.2665 51.1671 82.2867 50.8722 82.2486C50.5773 82.2104 50.295 82.1148 50.0443 81.9682C49.7936 81.8216 49.5806 81.6275 49.4196 81.3991L43.7808 73.3957C42.785 72.3445 42.2871 70.9763 42.3964 69.591C42.5057 68.2057 43.2132 66.9165 44.3637 66.0059C45.5143 65.0954 47.014 64.6378 48.5341 64.7336C50.0542 64.8294 51.4706 65.4706 52.4728 66.5168L60.3912 72.6646C60.6178 72.8407 60.8002 73.0593 60.9258 73.3054C61.0515 73.5515 61.1175 73.8194 61.1193 74.0909C61.1211 74.3623 61.0587 74.6309 60.9363 74.8784C60.8139 75.1259 60.6345 75.3464 60.4102 75.525V75.525Z" fill="#E4E4E4"/>
<path d="M33.3008 84.0054L23.5585 80.5169C23.2813 80.4177 23.0309 80.2651 22.8242 80.0697C22.6175 79.8742 22.4595 79.6405 22.3609 79.3843C22.2622 79.1282 22.2253 78.8557 22.2526 78.5854C22.28 78.3151 22.3709 78.0533 22.5192 77.8179L27.7171 69.5703C28.282 68.28 29.3852 67.2466 30.7849 66.6968C32.1845 66.147 33.7663 66.1256 35.1832 66.6374C36.6001 67.1491 37.7365 68.1522 38.3431 69.4266C38.9497 70.701 38.9769 72.1427 38.4189 73.4354L36.0778 82.673C36.0106 82.9375 35.8818 83.1856 35.6999 83.4006C35.5181 83.6156 35.2876 83.7923 35.024 83.9188C34.7605 84.0452 34.4702 84.1184 34.1728 84.1334C33.8754 84.1483 33.578 84.1047 33.3008 84.0055V84.0054Z" fill="#E4E4E4"/>
<path d="M47.694 45.954C50.1589 48.2484 53.5057 50.7537 56.8304 49.3854C59.0135 48.487 60.1171 46.2923 59.7811 44.1306C59.177 40.2433 55.6932 37.9506 52.2958 36.0617C47.8791 33.6063 42.9682 31.4004 37.8023 31.654C32.6363 31.9076 27.3465 35.462 27.2438 40.1766C27.1612 43.9679 30.2886 47.7001 28.9487 51.2901C27.6001 54.9031 22.5967 56.0292 18.4102 55.9621C14.2238 55.8949 9.65416 55.2908 6.17365 57.4123C1.73363 60.1187 1.34671 66.3201 4.05855 70.5145C6.77038 74.7089 11.6811 77.2754 16.5412 79.295C22.9805 81.9709 30.1212 84.056 37.0627 82.8001C44.0043 81.5442 50.4113 75.9451 49.8785 69.5129C49.6534 66.7959 48.2772 64.2854 46.9506 61.8438C45.6239 59.4021 44.2958 56.8595 44.1793 54.1369C44.0822 51.8681 45.0497 49.429 46.9791 48.0889C47.3276 47.8562 47.5863 47.529 47.718 47.154C47.8497 46.779 47.8476 46.3756 47.7121 46.0018L47.694 45.954Z" fill="#2F2E41"/>
<path d="M186.046 90.141C182.478 92.0912 176.122 94.5347 169.627 92.0235L165.428 90.4002L173.842 81.8033C167.128 75.0557 163.413 66.2696 163.424 57.1601C163.434 48.0507 167.168 39.2716 173.897 32.5365C180.627 25.8013 189.868 21.5936 199.818 20.7346C209.767 19.8755 219.711 22.4268 227.708 27.8905C235.705 33.3542 241.182 41.338 243.068 50.2837C244.955 59.2295 243.116 68.4949 237.912 76.2716C232.707 84.0484 224.509 89.7781 214.919 92.3426C205.329 94.9071 195.035 94.1221 186.046 90.141Z" fill="white"/>
<path d="M186.068 90.6044C182.64 92.4389 176.109 94.9741 169.452 92.3997L164.677 90.5537L173.24 81.8044C167.912 76.3418 164.477 69.5643 163.366 62.3255C162.256 55.0867 163.521 47.7103 167.001 41.1253C170.481 34.5402 176.021 29.0411 182.923 25.3203C189.825 21.5995 197.781 19.8235 205.789 20.216C213.796 20.6084 221.497 23.1518 227.922 27.5258C234.347 31.8997 239.208 37.9087 241.893 44.7959C244.579 51.6831 244.968 59.1406 243.012 66.2291C241.057 73.3177 236.844 79.7203 230.904 84.6306C224.938 89.5919 217.48 92.8122 209.49 93.8768C201.499 94.9415 193.342 93.8018 186.068 90.6044ZM233.04 32.8666C229.535 29.3409 225.303 26.4792 220.584 24.445C215.866 22.4107 210.754 21.2438 205.54 21.0107C200.327 20.7777 195.114 21.4833 190.2 23.087C185.286 24.6907 180.766 27.1613 176.9 30.3575C173.034 33.5536 169.896 37.4129 167.667 41.7146C165.437 46.0163 164.159 50.6763 163.906 55.4284C163.653 60.1804 164.429 64.9313 166.191 69.4097C167.953 73.8881 170.666 78.0062 174.174 81.5288L174.445 81.8012L166.179 90.2467L169.802 91.6473C176.232 94.1334 182.595 91.5509 185.815 89.7905L186.023 89.6765L186.242 89.7733C194.544 93.45 203.991 94.3777 212.961 92.3973C221.932 90.4169 229.866 85.6518 235.402 78.9201C240.938 72.1885 243.73 63.9102 243.299 55.5065C242.868 47.1029 239.241 39.0981 233.04 32.8665V32.8666Z" fill="#87F695"/>
<path opacity="0.1" d="M237.531 56.9694C237.53 48.5461 234.069 40.4283 227.83 34.2145C221.591 28.0008 213.025 24.1415 203.82 23.3967C204.897 23.3107 205.987 23.2641 207.088 23.2641C216.892 23.2688 226.293 26.8219 233.224 33.1423C240.155 39.4628 244.048 48.0332 244.048 56.9694C244.048 65.9055 240.155 74.476 233.224 80.7964C226.293 87.1169 216.892 90.67 207.088 90.6746C205.988 90.6746 204.901 90.6275 203.825 90.5417C213.029 89.7957 221.594 85.936 227.832 79.7225C234.07 73.5089 237.53 65.3918 237.531 56.9694Z" fill="black"/>
<path d="M208.825 50.2481H182.402V52.4847H208.825V50.2481Z" fill="#87F695"/>
<path d="M228.456 57.9851H182.402V60.2217H228.456V57.9851Z" fill="#87F695"/>
<path d="M228.411 65.7221H182.402V67.9587H228.411V65.7221Z" fill="#87F695"/>
<path d="M102.79 147.142C99.0354 144.038 96.3746 139.988 95.1445 135.506C93.9144 131.024 94.1702 126.309 95.8796 121.959C97.589 117.609 100.675 113.819 104.748 111.068C108.821 108.317 113.697 106.728 118.76 106.503C123.823 106.278 128.846 107.426 133.194 109.803C137.541 112.18 141.017 115.678 143.183 119.856C145.349 124.033 146.107 128.702 145.362 133.273C144.616 137.843 142.401 142.109 138.995 145.532L144.362 151.015L141.684 152.051C137.541 153.652 133.486 152.094 131.211 150.85C126.609 152.888 121.443 153.624 116.378 152.963C111.313 152.302 106.58 150.275 102.79 147.142Z" fill="white"/>
<path d="M119.976 153.48C113.546 153.475 107.349 151.284 102.598 147.335C98.8095 144.203 96.1222 140.119 94.8748 135.598C93.6275 131.076 93.8759 126.32 95.5887 121.927C97.3015 117.534 100.402 113.701 104.5 110.911C108.598 108.121 113.51 106.499 118.618 106.248C123.725 105.998 128.8 107.131 133.203 109.504C137.605 111.877 141.139 115.385 143.359 119.585C145.578 123.786 146.385 128.491 145.677 133.108C144.969 137.725 142.777 142.048 139.379 145.532L144.841 151.113L141.795 152.291C137.549 153.933 133.383 152.316 131.197 151.145C127.696 152.679 123.861 153.477 119.976 153.48ZM102.983 146.949C106.722 150.06 111.403 152.073 116.415 152.727C121.427 153.381 126.539 152.645 131.086 150.615L131.225 150.554L131.358 150.626C133.412 151.749 137.471 153.396 141.572 151.811L143.883 150.917L138.61 145.53L138.783 145.357C142.151 141.972 144.342 137.754 145.079 133.234C145.816 128.715 145.066 124.098 142.924 119.967C140.783 115.836 137.345 112.377 133.046 110.026C128.748 107.676 123.781 106.541 118.774 106.763C113.767 106.986 108.945 108.557 104.918 111.277C100.891 113.998 97.8392 117.746 96.1489 122.047C94.4586 126.349 94.2056 131.01 95.422 135.443C96.6384 139.875 99.2695 143.879 102.983 146.949Z" fill="#87F695"/>
<path opacity="0.1" d="M98.3714 129.691C98.3718 124.319 100.579 119.141 104.559 115.177C108.538 111.214 114.002 108.752 119.874 108.277C119.186 108.222 118.491 108.193 117.789 108.193C111.535 108.196 105.539 110.462 101.118 114.494C96.6978 118.525 94.2145 123.992 94.2145 129.691C94.2145 135.391 96.6978 140.858 101.118 144.889C105.539 148.921 111.535 151.187 117.789 151.19C118.49 151.19 119.184 151.16 119.87 151.105C113.999 150.63 108.537 148.168 104.558 144.204C100.579 140.241 98.3718 135.064 98.3714 129.691Z" fill="black"/>
<path d="M133.535 125.404H116.681V126.831H133.535V125.404Z" fill="#87F695"/>
<path d="M133.535 130.339H104.16V131.766H133.535V130.339Z" fill="#87F695"/>
<path d="M133.535 135.274H104.188V136.701H133.535V135.274Z" fill="#87F695"/>
<path d="M152.805 156.345C154.809 156.345 156.433 154.865 156.433 153.039C156.433 151.213 154.809 149.732 152.805 149.732C150.802 149.732 149.177 151.213 149.177 153.039C149.177 154.865 150.802 156.345 152.805 156.345Z" fill="#87F695"/>
<path d="M158.082 95.3262C160.449 95.3262 162.369 93.5767 162.369 91.4186C162.369 89.2605 160.449 87.511 158.082 87.511C155.714 87.511 153.794 89.2605 153.794 91.4186C153.794 93.5767 155.714 95.3262 158.082 95.3262Z" fill="#87F695"/>
</g>
<defs>
<clipPath id="clip0_9_11">
<rect width="248" height="205" fill="white"/>
</clipPath>
</defs>
</svg>
